<?xml version="1.0" standalone="no"?>
<!DOCTYPE svg PUBLIC "-//W3C//DTD SVG 20010904//EN"
 "http://www.w3.org/TR/2001/REC-SVG-20010904/DTD/svg10.dtd">
<svg version="1.0" xmlns="http://www.w3.org/2000/svg"
 width="400.000000pt" height="400.000000pt" viewBox="0 0 400.000000 400.000000"
 preserveAspectRatio="xMidYMid meet">

<g transform="translate(0.000000,400.000000) scale(0.100000,-0.100000)"
fill="#000000" stroke="none">
<path d="M1012 3989 c-91 -16 -197 -71 -261 -137 -95 -98 -133 -197 -133 -347
0 -82 24 -216 52 -291 8 -20 3 -32 -35 -76 -57 -68 -173 -221 -206 -273 -47
-74 -147 -289 -183 -395 -20 -58 -48 -164 -62 -235 -24 -117 -27 -152 -28
-350 0 -190 3 -236 22 -335 41 -207 88 -347 171 -512 169 -334 431 -609 758
-794 52 -30 98 -54 101 -54 4 0 20 -7 37 -16 108 -56 407 -142 560 -160 72 -8
306 -9 355 -1 19 3 61 9 93 12 32 4 104 18 160 31 486 117 874 389 1146 804
306 465 383 1072 204 1610 -66 199 -201 444 -326 594 l-42 50 4 122 c4 145
-10 198 -71 275 -87 111 -228 163 -377 139 -42 -6 -100 -22 -130 -36 -29 -13
-61 -24 -70 -24 -9 0 -38 21 -66 46 -133 121 -270 182 -494 219 -129 22 -321
16 -426 -13 -166 -45 -330 -147 -417 -259 -22 -29 -44 -53 -49 -53 -32 0 23
121 77 171 32 30 101 69 121 69 25 0 13 28 -33 79 -53 59 -105 92 -188 121
-69 24 -190 33 -264 19z m1807 -460 c50 -35 79 -93 84 -165 4 -49 -8 -94 -25
-94 -4 0 -8 12 -8 27 0 32 -30 111 -77 201 -18 34 -28 62 -24 62 4 0 27 -14
50 -31z m-1071 -152 c6 -6 16 -31 24 -54 10 -33 19 -44 40 -48 14 -4 32 -13
40 -22 11 -13 7 -20 -27 -49 l-40 -33 59 -26 c131 -58 222 -78 356 -79 110 -1
131 2 175 22 89 41 147 114 161 201 4 23 10 41 13 41 16 0 220 -218 238 -255
57 -115 73 -261 42 -384 -54 -210 -142 -400 -225 -490 -99 -107 -234 -195
-344 -224 -50 -12 -65 -12 -140 3 -208 43 -401 141 -516 262 -70 73 -85 97
-77 127 l6 26 -23 -24 c-19 -19 -30 -22 -60 -18 -122 16 -218 213 -153 313 28
43 115 35 153 -14 12 -15 24 -26 27 -25 3 2 7 40 9 85 6 151 66 299 157 390
52 52 50 57 -8 32 -33 -13 -40 -14 -52 -1 -13 12 -12 19 1 52 15 35 15 39 -4
62 -11 14 -20 34 -20 44 0 15 8 19 40 19 34 0 45 6 76 40 38 42 55 48 72 27z
m30 -1504 c6 -16 20 -54 31 -86 24 -67 55 -130 83 -170 l20 -28 30 46 c16 25
34 45 40 45 5 0 41 -18 80 -41 79 -46 87 -46 151 11 l35 31 19 -26 c54 -77 52
-78 53 8 0 53 -7 97 -20 138 -12 34 -19 64 -16 67 8 7 110 -47 152 -81 48 -40
84 -117 84 -181 0 -50 -19 -86 -47 -86 -7 0 -13 -4 -13 -9 0 -5 -13 -14 -30
-21 -21 -9 -30 -19 -30 -36 0 -30 27 -32 63 -4 33 26 46 25 51 -2 25 -119 57
-371 62 -488 3 -80 12 -168 20 -197 16 -58 19 -229 4 -238 -6 -3 -10 5 -10 19
0 14 -11 50 -25 80 -14 30 -25 60 -25 65 0 6 -5 11 -11 11 -11 0 -8 -25 7 -64
3 -9 1 -16 -5 -16 -6 0 -11 -6 -11 -14 0 -8 8 -13 17 -12 21 1 35 -54 33 -134
-2 -74 -10 -78 -11 -4 l-1 59 -13 -35 -13 -35 -2 30 -2 30 -8 -30 c-6 -24 -8
-19 -9 30 0 34 -10 84 -22 114 -11 30 -22 86 -24 125 -3 76 -11 106 -27 106
-12 0 -6 -91 14 -239 11 -83 11 -84 -13 -102 -40 -30 -107 -42 -248 -46 -180
-4 -344 27 -490 92 -34 16 -64 25 -67 22 -4 -3 -9 -21 -13 -38 -11 -54 -31
-48 -31 10 0 46 -12 72 -27 57 -4 -3 -10 -49 -14 -102 -9 -125 -23 -140 -32
-34 -3 34 -4 28 -5 -22 -3 -88 -20 -88 -24 0 l-3 67 -9 -52 c-11 -66 -26 -59
-26 13 0 30 -4 54 -10 54 -12 0 -4 101 15 185 8 33 17 134 20 225 8 189 23
311 69 527 4 23 14 24 52 4 140 -70 195 -84 202 -50 2 11 -28 30 -105 66 -59
28 -118 53 -129 57 -56 17 -37 171 28 234 48 47 94 82 107 82 6 0 11 5 11 11
0 5 5 7 10 4 6 -3 10 -1 10 5 0 6 5 8 10 5 6 -3 10 -1 10 4 0 21 18 11 28 -16z
m393 -206 c-10 -9 -11 -8 -5 6 3 10 9 15 12 12 3 -3 0 -11 -7 -18z m-54 -12
c8 -9 13 -18 11 -21 -3 -2 -13 5 -23 16 -21 23 -11 27 12 5z m36 -20 c-3 -9
-8 -14 -10 -11 -3 3 -2 9 2 15 9 16 15 13 8 -4z m453 -1196 l-14 -34 -1 41
c-1 43 21 82 27 46 2 -11 -4 -35 -12 -53z"/>
<path d="M1821 3069 c-43 -13 -110 -55 -118 -75 -9 -24 4 -28 42 -10 62 30
151 40 223 27 35 -7 67 -10 70 -7 9 10 -31 48 -65 62 -37 16 -102 17 -152 3z"/>
<path d="M2532 3043 c-34 -17 -58 -48 -44 -57 5 -3 26 0 47 5 53 15 132 3 177
-27 45 -29 48 -29 48 -6 0 24 -46 67 -92 86 -48 20 -94 20 -136 -1z"/>
<path d="M1912 2867 c25 -7 50 -15 54 -19 4 -5 14 -8 23 -8 13 0 13 2 -1 16
-10 10 -37 18 -70 20 l-53 3 47 -12z"/>
<path d="M2555 2870 c-23 -9 -53 -40 -39 -40 5 1 20 7 34 15 14 8 39 15 55 15
23 0 27 3 15 10 -18 12 -38 12 -65 0z"/>
<path d="M1734 2835 c20 -51 21 -48 -13 -31 -26 14 -31 14 -31 2 0 -8 10 -22
22 -30 l22 -16 -28 0 c-32 0 -32 -23 1 -28 17 -3 19 -9 15 -59 -3 -40 -2 -54
7 -49 6 4 11 22 11 40 0 37 32 89 73 120 29 21 106 28 160 13 33 -9 36 -27 5
-27 -39 0 -85 -36 -98 -75 -39 -117 64 -224 158 -165 42 26 55 61 49 134 -8
90 -62 154 -151 178 -44 12 -83 7 -137 -16 -10 -4 -23 -1 -32 8 -20 20 -41 21
-33 1z m236 -120 c10 -12 9 -20 -4 -40 -17 -26 -24 -29 -50 -19 -21 8 -20 33
1 56 20 22 36 23 53 3z"/>
<path d="M2554 2831 c-38 -17 -99 -80 -88 -90 2 -2 17 8 33 23 54 52 152 55
195 7 18 -19 17 -19 -17 -9 -119 37 -188 -146 -89 -235 14 -13 32 -17 63 -15
41 3 46 6 71 53 15 28 30 73 34 102 5 42 10 52 27 55 28 4 34 28 7 28 l-22 0
23 19 c29 23 21 35 -14 22 -17 -7 -28 -7 -32 -1 -4 6 -2 10 3 10 11 0 25 30
18 37 -2 2 -13 -1 -25 -9 -17 -10 -26 -10 -53 1 -53 22 -90 23 -134 2z m90
-116 c14 -36 -33 -70 -60 -43 -12 12 -12 17 2 36 17 25 49 29 58 7z"/>
<path d="M1352 2609 c14 -8 15 -13 6 -28 -24 -39 21 -141 63 -141 10 0 19 -7
19 -15 0 -8 4 -15 10 -15 17 0 23 51 10 93 -14 47 -78 117 -106 117 -18 -1
-18 -1 -2 -11z"/>
<path d="M1731 2594 c0 -11 3 -14 6 -6 3 7 2 16 -1 19 -3 4 -6 -2 -5 -13z"/>
<path d="M1760 2543 c21 -33 57 -63 74 -63 5 0 -4 10 -20 23 -16 12 -40 33
-52 47 l-24 25 22 -32z"/>
<path d="M2367 2478 c4 -47 2 -72 -7 -83 -19 -23 -3 -31 20 -10 25 23 25 67 1
120 l-19 40 5 -67z"/>
<path d="M1677 2504 c-15 -16 -7 -64 13 -74 12 -6 18 -16 14 -23 -5 -9 -3 -8
7 1 7 6 21 12 31 12 12 0 15 5 11 17 -5 12 -3 14 7 8 7 -5 5 3 -6 18 -10 14
-26 28 -34 31 -8 3 -20 8 -26 11 -5 3 -13 2 -17 -1z"/>
<path d="M2618 2475 c-26 -7 -50 -10 -54 -6 -4 3 -4 0 1 -8 5 -9 20 -12 46 -8
36 5 39 3 39 -20 0 -13 -4 -21 -10 -18 -5 3 -10 2 -10 -3 0 -12 38 -22 56 -15
17 6 29 47 20 69 -6 15 -8 15 -26 -1 -21 -19 -28 -7 -8 13 14 14 7 14 -54 -3z"/>
<path d="M1858 2473 c7 -3 16 -2 19 1 4 3 -2 6 -13 5 -11 0 -14 -3 -6 -6z"/>
<path d="M2170 2415 c0 -15 10 -31 25 -41 33 -22 45 -10 17 16 -12 12 -22 27
-22 35 0 8 -4 15 -10 15 -5 0 -10 -11 -10 -25z"/>
<path d="M2020 2322 c0 -13 93 -69 143 -86 89 -30 178 -17 242 37 48 39 38 46
-15 10 -79 -52 -219 -42 -322 24 -40 25 -48 27 -48 15z"/>
<path d="M2159 2141 c27 -25 59 -27 87 -6 18 13 16 14 -28 15 -25 0 -55 3 -65
6 -14 4 -13 1 6 -15z"/>
<path d="M1673 1078 c-79 -286 -82 -300 -65 -335 27 -56 31 -49 56 84 15 81
33 293 25 293 -3 0 -10 -19 -16 -42z"/>
</g>
</svg>
